<?xml version="1.0" standalone="no"?>
<!DOCTYPE svg PUBLIC "-//W3C//DTD SVG 20010904//EN"
 "http://www.w3.org/TR/2001/REC-SVG-20010904/DTD/svg10.dtd">
<svg version="1.0" xmlns="http://www.w3.org/2000/svg"
 width="103.000000pt" height="116.000000pt" viewBox="0 0 103.000000 116.000000"
 preserveAspectRatio="xMidYMid meet">

<g transform="translate(0.000000,116.000000) scale(0.100000,-0.100000)"
fill="#000000" stroke="none">
<path d="M827 1115 c-44 -23 -77 -51 -115 -100 -25 -32 -42 -45 -61 -46 -22 0
-23 -1 -7 -8 14 -5 16 -10 8 -15 -16 -10 -92 -13 -92 -4 0 4 -11 3 -24 -2 -13
-5 -26 -6 -29 -3 -3 3 -30 4 -59 4 -46 -2 -210 -2 -288 0 -14 0 -45 -7 -68
-16 l-42 -17 0 -102 c0 -101 0 -103 26 -115 54 -24 173 -43 312 -48 78 -3 142
-7 142 -8 0 -1 -5 -16 -11 -34 -10 -29 -14 -31 -62 -31 -91 0 -279 20 -340 36
-33 8 -62 13 -65 10 -9 -10 -11 -149 -2 -167 20 -37 174 -69 332 -69 l97 0 10
-37 c6 -20 8 -39 6 -42 -10 -9 -320 19 -375 34 -30 8 -61 15 -67 15 -16 0 -18
-142 -3 -170 19 -36 129 -59 326 -68 l142 -7 11 100 c17 146 42 247 60 236 12
-8 11 -19 -3 -75 -9 -36 -16 -70 -16 -76 0 -7 23 9 51 34 28 25 55 46 59 46 9
0 110 133 110 144 0 4 -17 4 -37 0 -47 -8 -38 3 29 36 47 23 57 34 104 117
119 214 135 386 40 444 -37 23 -62 24 -99 4z m-97 -363 c0 -4 -7 -18 -16 -31
-21 -29 -41 -14 -25 18 11 20 41 30 41 13z m-234 -316 c6 -26 -1 -46 -17 -46
-5 0 -9 16 -9 35 0 40 17 47 26 11z"/>
<path d="M522 35 c0 -17 2 -22 5 -12 2 9 2 23 0 30 -3 6 -5 -1 -5 -18z"/>
</g>
</svg>
