<?xml version="1.0" standalone="no"?>
<!DOCTYPE svg PUBLIC "-//W3C//DTD SVG 20010904//EN"
 "http://www.w3.org/TR/2001/REC-SVG-20010904/DTD/svg10.dtd">
<svg version="1.0" xmlns="http://www.w3.org/2000/svg"
 width="67.000000pt" height="67.000000pt" viewBox="0 0 67.000000 67.000000"
 preserveAspectRatio="xMidYMid meet">

<g transform="translate(0.000000,67.000000) scale(0.100000,-0.100000)"
fill="#000000" stroke="none">
<path d="M425 601 c-50 -12 -95 -41 -107 -66 -8 -18 -15 -22 -23 -15 -26 22
-175 -128 -205 -205 -7 -17 -12 -53 -11 -82 0 -35 -8 -71 -24 -108 -14 -30
-23 -55 -21 -55 3 0 19 25 37 56 29 51 34 55 61 52 20 -3 25 -1 18 6 -19 19
-10 26 30 26 21 0 62 9 90 20 28 11 69 20 90 20 48 0 52 14 8 30 l-33 11 100
51 c114 57 156 93 192 161 23 46 23 50 7 68 -31 34 -131 49 -209 30z"/>
</g>
</svg>
